<?xml version="1.0" encoding="UTF-8"?>
<svg width="32" height="32" viewBox="0 0 32 32" fill="none" xmlns="http://www.w3.org/2000/svg">
  <path d="M16 32C24.8366 32 32 24.8366 32 16C32 7.16344 24.8366 0 16 0C7.16344 0 0 7.16344 0 16C0 24.8366 7.16344 32 16 32Z" fill="#6FBCF0"/>
  <path fill-rule="evenodd" clip-rule="evenodd" d="M16.0002 4.17969C9.45241 4.17969 4.1543 9.4778 4.1543 16.0256C4.1543 22.5734 9.45241 27.8715 16.0002 27.8715C22.548 27.8715 27.8461 22.5734 27.8461 16.0256C27.8461 9.4778 22.548 4.17969 16.0002 4.17969ZM9.89109 11.5505C9.89109 10.8247 10.4809 10.2349 11.2067 10.2349H20.7937C21.5195 10.2349 22.1093 10.8247 22.1093 11.5505C22.1093 12.2763 21.5195 12.8661 20.7937 12.8661H11.2067C10.4809 12.8661 9.89109 12.2763 9.89109 11.5505ZM11.2067 19.1849C10.4809 19.1849 9.89109 19.7747 9.89109 20.5005C9.89109 21.2263 10.4809 21.8161 11.2067 21.8161H20.7937C21.5195 21.8161 22.1093 21.2263 22.1093 20.5005C22.1093 19.7747 21.5195 19.1849 20.7937 19.1849H11.2067Z" fill="white"/>
</svg> 